<?xml version="1.0" encoding="UTF-8"?>
<svg xmlns="http://www.w3.org/2000/svg" xmlns:xlink="http://www.w3.org/1999/xlink" width="px" height="14px" viewBox="0 0 11 14" version="1.1">
<g id="surface1">
<path style=" stroke:none;fill-rule:nonzero;fill:rgb(0%,0%,0%);fill-opacity:1;" d="M 5.84375 0.179688 C 2.90625 0.179688 0 2.046875 0 5.074219 C 0 7 1.132812 8.09375 1.820312 8.09375 C 2.105469 8.09375 2.269531 7.339844 2.269531 7.125 C 2.269531 6.871094 1.589844 6.332031 1.589844 5.273438 C 1.589844 3.074219 3.34375 1.515625 5.613281 1.515625 C 7.5625 1.515625 9.007812 2.574219 9.007812 4.515625 C 9.007812 5.96875 8.394531 8.691406 6.417969 8.691406 C 5.707031 8.691406 5.097656 8.199219 5.097656 7.496094 C 5.097656 6.460938 5.851562 5.460938 5.851562 4.394531 C 5.851562 2.582031 3.164062 2.910156 3.164062 5.097656 C 3.164062 5.558594 3.222656 6.066406 3.4375 6.484375 C 3.042969 8.109375 2.234375 10.53125 2.234375 12.203125 C 2.234375 12.71875 2.3125 13.230469 2.363281 13.746094 C 2.460938 13.847656 2.410156 13.839844 2.5625 13.785156 C 4.003906 11.898438 3.953125 11.53125 4.605469 9.0625 C 4.957031 9.703125 5.871094 10.046875 6.589844 10.046875 C 9.632812 10.046875 11 7.214844 11 4.664062 C 11 1.949219 8.542969 0.179688 5.84375 0.179688 Z M 5.84375 0.179688 "/>
</g>
</svg>
